<mxfile host="app.diagrams.net" modified="2022-11-07T10:19:18.759Z" agent="5.0 (Windows NT 10.0; Win64; x64) AppleWebKit/537.36 (KHTML, like Gecko) Chrome/107.0.0.0 Safari/537.36" etag="_eEGJWwfHhFD2sVGeJHZ" version="20.5.3" type="github">
  <diagram name="Page-1" id="13e1069c-82ec-6db2-03f1-153e76fe0fe0">
    <mxGraphModel dx="3526" dy="1362" grid="1" gridSize="10" guides="1" tooltips="1" connect="1" arrows="1" fold="1" page="1" pageScale="1" pageWidth="1100" pageHeight="850" background="none" math="0" shadow="0">
      <root>
        <mxCell id="0" />
        <mxCell id="1" parent="0" />
        <mxCell id="gAT3jmnBQtWW5y3MEHsW-95" value="" style="rounded=0;whiteSpace=wrap;html=1;glass=0;fillColor=#dae8fc;strokeColor=#6c8ebf;" parent="1" vertex="1">
          <mxGeometry x="-80" y="50" width="1050" height="610" as="geometry" />
        </mxCell>
        <mxCell id="7baba1c4bc27f4b0-2" value=":AddressBookParser" style="shape=umlLifeline;perimeter=lifelinePerimeter;whiteSpace=wrap;html=1;container=1;collapsible=0;recursiveResize=0;outlineConnect=0;rounded=0;shadow=0;comic=0;labelBackgroundColor=none;strokeWidth=1;fontFamily=Verdana;fontSize=12;align=center;" parent="1" vertex="1">
          <mxGeometry x="220" y="80" width="140" height="570" as="geometry" />
        </mxCell>
        <mxCell id="7baba1c4bc27f4b0-10" value="" style="html=1;points=[];perimeter=orthogonalPerimeter;rounded=0;shadow=0;comic=0;labelBackgroundColor=none;strokeWidth=1;fontFamily=Verdana;fontSize=12;align=center;" parent="7baba1c4bc27f4b0-2" vertex="1">
          <mxGeometry x="65" y="110" width="10" height="230" as="geometry" />
        </mxCell>
        <mxCell id="7baba1c4bc27f4b0-3" value=":ImportCommandParser" style="shape=umlLifeline;perimeter=lifelinePerimeter;whiteSpace=wrap;html=1;container=0;collapsible=0;recursiveResize=0;outlineConnect=0;rounded=0;shadow=0;comic=0;labelBackgroundColor=none;strokeWidth=1;fontFamily=Verdana;fontSize=12;align=center;glass=0;" parent="1" vertex="1">
          <mxGeometry x="340" y="180" width="160" height="230" as="geometry" />
        </mxCell>
        <mxCell id="7baba1c4bc27f4b0-4" value=":ParserUtil" style="shape=umlLifeline;perimeter=lifelinePerimeter;whiteSpace=wrap;html=1;container=1;collapsible=0;recursiveResize=0;outlineConnect=0;rounded=0;shadow=0;comic=0;labelBackgroundColor=none;strokeWidth=1;fontFamily=Verdana;fontSize=12;align=center;" parent="1" vertex="1">
          <mxGeometry x="540" y="80" width="100" height="570" as="geometry" />
        </mxCell>
        <mxCell id="7baba1c4bc27f4b0-5" value=":ImportCommand" style="shape=umlLifeline;perimeter=lifelinePerimeter;whiteSpace=wrap;html=1;container=1;collapsible=0;recursiveResize=0;outlineConnect=0;rounded=0;shadow=0;comic=0;labelBackgroundColor=none;strokeWidth=1;fontFamily=Verdana;fontSize=12;align=center;" parent="1" vertex="1">
          <mxGeometry x="670" y="310" width="120" height="300" as="geometry" />
        </mxCell>
        <mxCell id="gAT3jmnBQtWW5y3MEHsW-10" value="" style="html=1;points=[];perimeter=orthogonalPerimeter;rounded=0;shadow=0;comic=0;labelBackgroundColor=none;strokeWidth=1;fontFamily=Verdana;fontSize=12;align=center;" parent="7baba1c4bc27f4b0-5" vertex="1">
          <mxGeometry x="55" y="40" width="10" height="20" as="geometry" />
        </mxCell>
        <mxCell id="gAT3jmnBQtWW5y3MEHsW-76" value="" style="shape=umlDestroy;whiteSpace=wrap;html=1;strokeWidth=3;rounded=0;glass=0;" parent="7baba1c4bc27f4b0-5" vertex="1">
          <mxGeometry x="45" y="290" width="30" height="30" as="geometry" />
        </mxCell>
        <mxCell id="7baba1c4bc27f4b0-8" value=":LogicManager" style="shape=umlLifeline;perimeter=lifelinePerimeter;whiteSpace=wrap;html=1;container=1;collapsible=0;recursiveResize=0;outlineConnect=0;rounded=0;shadow=0;comic=0;labelBackgroundColor=none;strokeWidth=1;fontFamily=Verdana;fontSize=12;align=center;" parent="1" vertex="1">
          <mxGeometry x="25" y="80" width="100" height="570" as="geometry" />
        </mxCell>
        <mxCell id="7baba1c4bc27f4b0-9" value="" style="html=1;points=[];perimeter=orthogonalPerimeter;rounded=0;shadow=0;comic=0;labelBackgroundColor=none;strokeWidth=1;fontFamily=Verdana;fontSize=12;align=center;" parent="7baba1c4bc27f4b0-8" vertex="1">
          <mxGeometry x="45" y="100" width="10" height="430" as="geometry" />
        </mxCell>
        <mxCell id="gAT3jmnBQtWW5y3MEHsW-1" value="execute(&quot;import PATH&quot;)" style="html=1;verticalAlign=bottom;endArrow=block;entryX=0;entryY=0;labelBackgroundColor=none;fontFamily=Verdana;fontSize=12;edgeStyle=elbowEdgeStyle;elbow=vertical;" parent="7baba1c4bc27f4b0-8" edge="1">
          <mxGeometry relative="1" as="geometry">
            <mxPoint x="-95" y="100" as="sourcePoint" />
            <mxPoint x="45" y="99.43" as="targetPoint" />
          </mxGeometry>
        </mxCell>
        <mxCell id="gAT3jmnBQtWW5y3MEHsW-16" value="" style="html=1;verticalAlign=bottom;endArrow=open;dashed=1;endSize=8;labelBackgroundColor=none;fontFamily=Verdana;fontSize=12;edgeStyle=elbowEdgeStyle;elbow=vertical;exitX=-0.013;exitY=0.997;exitDx=0;exitDy=0;exitPerimeter=0;" parent="7baba1c4bc27f4b0-8" edge="1">
          <mxGeometry x="-0.1285" y="-10" relative="1" as="geometry">
            <mxPoint x="-95" y="530" as="targetPoint" />
            <Array as="points">
              <mxPoint x="30.13" y="530.3299999999999" />
              <mxPoint x="-69.87" y="520.3299999999999" />
              <mxPoint x="-9.870000000000001" y="520.3299999999999" />
            </Array>
            <mxPoint x="54.999999999999886" y="530" as="sourcePoint" />
            <mxPoint as="offset" />
          </mxGeometry>
        </mxCell>
        <mxCell id="7baba1c4bc27f4b0-16" value="" style="html=1;points=[];perimeter=orthogonalPerimeter;rounded=0;shadow=0;comic=0;labelBackgroundColor=none;strokeWidth=1;fontFamily=Verdana;fontSize=12;align=center;" parent="1" vertex="1">
          <mxGeometry x="585" y="290" width="10" height="20" as="geometry" />
        </mxCell>
        <mxCell id="7baba1c4bc27f4b0-23" value="execute(model)" style="html=1;verticalAlign=bottom;endArrow=block;entryX=0;entryY=0;labelBackgroundColor=none;fontFamily=Verdana;fontSize=12;" parent="1" source="7baba1c4bc27f4b0-9" target="7baba1c4bc27f4b0-22" edge="1">
          <mxGeometry relative="1" as="geometry">
            <mxPoint x="510" y="420" as="sourcePoint" />
            <Array as="points">
              <mxPoint x="440" y="450" />
            </Array>
          </mxGeometry>
        </mxCell>
        <mxCell id="7baba1c4bc27f4b0-11" value="parseCommand(&quot;import PATH&quot;)" style="html=1;verticalAlign=bottom;endArrow=block;entryX=0;entryY=0;labelBackgroundColor=none;fontFamily=Verdana;fontSize=12;edgeStyle=elbowEdgeStyle;elbow=vertical;" parent="1" source="7baba1c4bc27f4b0-9" target="7baba1c4bc27f4b0-10" edge="1">
          <mxGeometry relative="1" as="geometry">
            <mxPoint x="220" y="190" as="sourcePoint" />
            <Array as="points">
              <mxPoint x="190" y="190" />
            </Array>
          </mxGeometry>
        </mxCell>
        <mxCell id="7baba1c4bc27f4b0-14" value="" style="html=1;verticalAlign=bottom;endArrow=block;labelBackgroundColor=none;fontFamily=Verdana;fontSize=12;edgeStyle=elbowEdgeStyle;elbow=vertical;" parent="1" source="7baba1c4bc27f4b0-10" edge="1">
          <mxGeometry relative="1" as="geometry">
            <mxPoint x="370" y="200" as="sourcePoint" />
            <mxPoint x="340" y="200" as="targetPoint" />
          </mxGeometry>
        </mxCell>
        <mxCell id="7baba1c4bc27f4b0-13" value="" style="html=1;points=[];perimeter=orthogonalPerimeter;rounded=0;shadow=0;comic=0;labelBackgroundColor=none;strokeWidth=1;fontFamily=Verdana;fontSize=12;align=center;" parent="1" vertex="1">
          <mxGeometry x="415" y="220" width="10" height="20" as="geometry" />
        </mxCell>
        <mxCell id="gAT3jmnBQtWW5y3MEHsW-3" value="" style="html=1;verticalAlign=bottom;endArrow=open;dashed=1;endSize=8;labelBackgroundColor=none;fontFamily=Verdana;fontSize=12;edgeStyle=elbowEdgeStyle;elbow=vertical;entryX=1.078;entryY=0.221;entryDx=0;entryDy=0;entryPerimeter=0;" parent="1" target="7baba1c4bc27f4b0-10" edge="1">
          <mxGeometry x="-0.1285" y="-10" relative="1" as="geometry">
            <mxPoint x="300" y="240" as="targetPoint" />
            <Array as="points">
              <mxPoint x="345" y="240" />
            </Array>
            <mxPoint x="420" y="240" as="sourcePoint" />
            <mxPoint as="offset" />
          </mxGeometry>
        </mxCell>
        <mxCell id="gAT3jmnBQtWW5y3MEHsW-5" value="" style="html=1;points=[];perimeter=orthogonalPerimeter;rounded=0;shadow=0;comic=0;labelBackgroundColor=none;strokeWidth=1;fontFamily=Verdana;fontSize=12;align=center;" parent="1" vertex="1">
          <mxGeometry x="415" y="280" width="10" height="110" as="geometry" />
        </mxCell>
        <mxCell id="gAT3jmnBQtWW5y3MEHsW-6" value="parseImportPath(&quot;PATH&quot;)" style="html=1;verticalAlign=bottom;endArrow=block;labelBackgroundColor=none;fontFamily=Verdana;fontSize=12;edgeStyle=elbowEdgeStyle;elbow=vertical;entryX=-0.017;entryY=0.005;entryDx=0;entryDy=0;entryPerimeter=0;exitX=1.007;exitY=0.111;exitDx=0;exitDy=0;exitPerimeter=0;" parent="1" source="gAT3jmnBQtWW5y3MEHsW-5" target="7baba1c4bc27f4b0-16" edge="1">
          <mxGeometry relative="1" as="geometry">
            <mxPoint x="430" y="290" as="sourcePoint" />
            <mxPoint x="580" y="291" as="targetPoint" />
          </mxGeometry>
        </mxCell>
        <mxCell id="gAT3jmnBQtWW5y3MEHsW-7" value="" style="html=1;verticalAlign=bottom;endArrow=open;dashed=1;endSize=8;labelBackgroundColor=none;fontFamily=Verdana;fontSize=12;edgeStyle=elbowEdgeStyle;elbow=vertical;entryX=1.083;entryY=0.276;entryDx=0;entryDy=0;entryPerimeter=0;" parent="1" source="7baba1c4bc27f4b0-16" target="gAT3jmnBQtWW5y3MEHsW-5" edge="1">
          <mxGeometry x="-0.1285" y="-10" relative="1" as="geometry">
            <mxPoint x="430.00000000000006" y="310.38" as="targetPoint" />
            <Array as="points">
              <mxPoint x="440" y="310" />
              <mxPoint x="450" y="310" />
              <mxPoint x="420" y="310" />
              <mxPoint x="480.8" y="310" />
            </Array>
            <mxPoint x="555.8" y="310" as="sourcePoint" />
            <mxPoint as="offset" />
          </mxGeometry>
        </mxCell>
        <mxCell id="gAT3jmnBQtWW5y3MEHsW-9" value="" style="html=1;verticalAlign=bottom;endArrow=block;labelBackgroundColor=none;fontFamily=Verdana;fontSize=12;edgeStyle=elbowEdgeStyle;elbow=vertical;" parent="1" edge="1">
          <mxGeometry relative="1" as="geometry">
            <mxPoint x="425" y="330" as="sourcePoint" />
            <mxPoint x="670" y="330" as="targetPoint" />
            <Array as="points">
              <mxPoint x="660" y="330" />
            </Array>
          </mxGeometry>
        </mxCell>
        <mxCell id="gAT3jmnBQtWW5y3MEHsW-4" value="parse(&quot;PATH&quot;)" style="html=1;verticalAlign=bottom;endArrow=block;labelBackgroundColor=none;fontFamily=Verdana;fontSize=12;edgeStyle=elbowEdgeStyle;elbow=vertical;entryX=-0.015;entryY=-0.001;entryDx=0;entryDy=0;entryPerimeter=0;" parent="1" target="gAT3jmnBQtWW5y3MEHsW-5" edge="1">
          <mxGeometry relative="1" as="geometry">
            <mxPoint x="295" y="280" as="sourcePoint" />
            <mxPoint x="360" y="260.33" as="targetPoint" />
            <Array as="points">
              <mxPoint x="380" y="280" />
            </Array>
          </mxGeometry>
        </mxCell>
        <mxCell id="gAT3jmnBQtWW5y3MEHsW-11" value="" style="html=1;verticalAlign=bottom;endArrow=open;dashed=1;endSize=8;labelBackgroundColor=none;fontFamily=Verdana;fontSize=12;edgeStyle=elbowEdgeStyle;elbow=vertical;entryX=1.11;entryY=0.815;entryDx=0;entryDy=0;entryPerimeter=0;" parent="1" source="7baba1c4bc27f4b0-5" target="gAT3jmnBQtWW5y3MEHsW-5" edge="1">
          <mxGeometry x="-0.1285" y="-10" relative="1" as="geometry">
            <mxPoint x="430" y="370" as="targetPoint" />
            <Array as="points">
              <mxPoint x="420" y="370" />
              <mxPoint x="438.33" y="359.67" />
              <mxPoint x="448.33" y="359.67" />
              <mxPoint x="418.33" y="359.67" />
              <mxPoint x="479.13" y="359.67" />
            </Array>
            <mxPoint x="583.33" y="359.67" as="sourcePoint" />
            <mxPoint as="offset" />
          </mxGeometry>
        </mxCell>
        <mxCell id="gAT3jmnBQtWW5y3MEHsW-14" value="" style="html=1;verticalAlign=bottom;endArrow=open;dashed=1;endSize=8;labelBackgroundColor=none;fontFamily=Verdana;fontSize=12;edgeStyle=elbowEdgeStyle;elbow=vertical;exitX=-0.013;exitY=0.997;exitDx=0;exitDy=0;exitPerimeter=0;" parent="1" source="gAT3jmnBQtWW5y3MEHsW-5" edge="1">
          <mxGeometry x="-0.1285" y="-10" relative="1" as="geometry">
            <mxPoint x="295" y="390" as="targetPoint" />
            <Array as="points">
              <mxPoint x="390" y="390" />
              <mxPoint x="290" y="380" />
              <mxPoint x="350" y="380" />
            </Array>
            <mxPoint x="410" y="390" as="sourcePoint" />
            <mxPoint as="offset" />
          </mxGeometry>
        </mxCell>
        <mxCell id="gAT3jmnBQtWW5y3MEHsW-15" value="" style="shape=umlDestroy;whiteSpace=wrap;html=1;strokeWidth=3;rounded=0;glass=0;" parent="1" vertex="1">
          <mxGeometry x="405" y="395" width="30" height="30" as="geometry" />
        </mxCell>
        <mxCell id="gAT3jmnBQtWW5y3MEHsW-74" value="" style="html=1;verticalAlign=bottom;endArrow=open;dashed=1;endSize=8;exitX=0.033;exitY=0.998;rounded=0;exitDx=0;exitDy=0;exitPerimeter=0;" parent="1" source="7baba1c4bc27f4b0-22" edge="1">
          <mxGeometry relative="1" as="geometry">
            <mxPoint x="80" y="590" as="targetPoint" />
            <mxPoint x="594.9999999999998" y="1160.68" as="sourcePoint" />
          </mxGeometry>
        </mxCell>
        <mxCell id="gAT3jmnBQtWW5y3MEHsW-80" value=":CommandResult" style="shape=umlLifeline;perimeter=lifelinePerimeter;whiteSpace=wrap;html=1;container=1;collapsible=0;recursiveResize=0;outlineConnect=0;rounded=0;shadow=0;comic=0;labelBackgroundColor=none;strokeWidth=1;fontFamily=Verdana;fontSize=12;align=center;" parent="1" vertex="1">
          <mxGeometry x="835.93" y="520" width="120" height="60" as="geometry" />
        </mxCell>
        <mxCell id="gAT3jmnBQtWW5y3MEHsW-81" value="" style="html=1;points=[];perimeter=orthogonalPerimeter;rounded=0;shadow=0;comic=0;labelBackgroundColor=none;strokeWidth=1;fontFamily=Verdana;fontSize=12;align=center;" parent="gAT3jmnBQtWW5y3MEHsW-80" vertex="1">
          <mxGeometry x="55" y="40" width="10" height="20" as="geometry" />
        </mxCell>
        <mxCell id="gAT3jmnBQtWW5y3MEHsW-82" value="" style="html=1;verticalAlign=bottom;endArrow=block;labelBackgroundColor=none;fontFamily=Verdana;fontSize=12;edgeStyle=elbowEdgeStyle;elbow=vertical;" parent="1" edge="1">
          <mxGeometry relative="1" as="geometry">
            <mxPoint x="735" y="540" as="sourcePoint" />
            <mxPoint x="835.9300000000003" y="541.1800000000001" as="targetPoint" />
            <Array as="points" />
          </mxGeometry>
        </mxCell>
        <mxCell id="gAT3jmnBQtWW5y3MEHsW-83" value="" style="html=1;verticalAlign=bottom;endArrow=open;dashed=1;endSize=8;rounded=0;entryX=0.88;entryY=0.924;entryDx=0;entryDy=0;entryPerimeter=0;" parent="1" target="7baba1c4bc27f4b0-22" edge="1">
          <mxGeometry relative="1" as="geometry">
            <mxPoint x="725" y="1198.53" as="targetPoint" />
            <mxPoint x="890" y="580" as="sourcePoint" />
          </mxGeometry>
        </mxCell>
        <mxCell id="gAT3jmnBQtWW5y3MEHsW-94" value="Logic" style="text;html=1;strokeColor=none;fillColor=none;align=center;verticalAlign=middle;whiteSpace=wrap;rounded=0;glass=0;" parent="1" vertex="1">
          <mxGeometry x="420" y="50" width="60" height="30" as="geometry" />
        </mxCell>
        <mxCell id="yZovRmomd8fA6Ozh7CUF-3" value="ref" style="shape=umlFrame;whiteSpace=wrap;html=1;" vertex="1" parent="1">
          <mxGeometry x="655.93" y="460" width="174.07" height="40" as="geometry" />
        </mxCell>
        <mxCell id="yZovRmomd8fA6Ozh7CUF-4" value="import data" style="text;html=1;strokeColor=none;fillColor=none;align=center;verticalAlign=middle;whiteSpace=wrap;rounded=0;" vertex="1" parent="1">
          <mxGeometry x="735" y="460" width="90" height="20" as="geometry" />
        </mxCell>
        <mxCell id="7baba1c4bc27f4b0-22" value="" style="html=1;points=[];perimeter=orthogonalPerimeter;rounded=0;shadow=0;comic=0;labelBackgroundColor=none;strokeWidth=1;fontFamily=Verdana;fontSize=12;align=center;" parent="1" vertex="1">
          <mxGeometry x="725" y="450" width="10" height="140" as="geometry" />
        </mxCell>
      </root>
    </mxGraphModel>
  </diagram>
</mxfile>
